<svg width="155" height="29" viewBox="0 0 155 29" fill="none" xmlns="http://www.w3.org/2000/svg">
    <path d="M46.9865 4.98889H38.3302V3.64834H41.8619V1.84962H43.472V3.63137H46.9865V4.98889ZM42.6756 11.471C42.087 11.471 41.5676 11.3862 41.1348 11.2335C40.702 11.0808 40.3384 10.8771 40.0441 10.6226C39.7498 10.3681 39.5247 10.0796 39.3862 9.7402C39.2304 9.41779 39.1612 9.07841 39.1612 8.73903V8.2639C39.1612 7.90755 39.2304 7.56817 39.3862 7.24576C39.5421 6.92335 39.7498 6.63488 40.0441 6.38034C40.3384 6.12581 40.702 5.92218 41.1348 5.76946C41.5676 5.61674 42.087 5.53189 42.6756 5.53189C43.2643 5.53189 43.7836 5.61674 44.2165 5.76946C44.6493 5.92218 45.0129 6.12581 45.3072 6.38034C45.6015 6.63488 45.8265 6.92335 45.965 7.26273C46.1209 7.58514 46.1901 7.92452 46.1901 8.2639V8.73903C46.1901 9.07841 46.1209 9.41779 45.965 9.7402C45.8092 10.0626 45.6015 10.3511 45.3072 10.6226C45.0129 10.8941 44.6493 11.0808 44.2165 11.2335C43.7836 11.4032 43.2643 11.471 42.6756 11.471ZM42.6756 10.2153C43.0046 10.2153 43.2989 10.1644 43.5413 10.0796C43.7837 9.99474 43.9914 9.87596 44.1645 9.7402C44.3203 9.58748 44.4588 9.43476 44.5281 9.2481C44.6147 9.06144 44.6493 8.87478 44.6493 8.67116V8.34875C44.6493 8.16209 44.6147 7.95846 44.5281 7.7718C44.4415 7.58514 44.3203 7.41545 44.1645 7.2797C44.0087 7.12698 43.801 7.02517 43.5586 6.94032C43.3162 6.85548 43.0219 6.80457 42.6756 6.80457C42.3294 6.80457 42.0524 6.85548 41.7927 6.94032C41.5503 7.02517 41.3426 7.14395 41.1868 7.2797C41.0309 7.43242 40.8924 7.58514 40.8232 7.7718C40.7366 7.95846 40.702 8.14512 40.702 8.34875V8.67116C40.702 8.85782 40.7366 9.06144 40.8232 9.2481C40.9098 9.43476 41.0309 9.60445 41.1868 9.7402C41.3426 9.89293 41.5503 9.99474 41.81 10.0796C42.0524 10.1644 42.3467 10.2153 42.6756 10.2153ZM42.4679 15.2551H50.4663V16.6296H40.8578V12.5401H42.4679V15.2551ZM52.2149 7.7718H50.0681V12.7267H48.4754V2.00235H50.0854V6.39731H52.2322V7.7718H52.2149Z" fill="black"/>
    <path d="M54.8291 11.7425H59.1053V9.18022H53.0459V7.83967H62.7756C62.9141 7.24576 63.018 6.66881 63.0699 6.09187C63.1218 5.53189 63.1565 5.00585 63.1565 4.53072V3.9368H54.8637V2.59625H64.8012V4.59859C64.8012 5.03979 64.7665 5.56583 64.7146 6.1258C64.6627 6.70275 64.5761 7.26273 64.4722 7.83967H66.896V9.18022H60.75V11.7425H64.957V16.9181H63.3469V13.1001H54.8464V11.7425H54.8291Z" fill="black"/>
    <path d="M72.8862 7.75482C72.8342 7.89057 72.6957 8.07723 72.488 8.3148C72.2802 8.55236 72.0379 8.77296 71.7955 9.01053C71.4492 9.31597 71.051 9.63838 70.6009 9.97776C70.1508 10.3171 69.7007 10.6226 69.2505 10.945L68.2983 9.80807C68.8177 9.45172 69.3198 9.0784 69.8045 8.72205C70.2893 8.36571 70.6702 8.04329 70.9472 7.78876C71.1376 7.6021 71.3107 7.43241 71.4492 7.24575C71.5877 7.05909 71.6916 6.87243 71.7782 6.66881C71.8647 6.46518 71.9167 6.26155 71.9513 6.02398C71.9859 5.78642 72.0032 5.53188 72.0032 5.24341V4.32709H68.8004V2.98654H76.6776V4.32709H73.6479V5.17554C73.6479 5.6846 73.6999 6.10883 73.8037 6.44821C73.9076 6.78759 74.15 7.11 74.4963 7.39847C74.8944 7.73785 75.3099 8.07723 75.7428 8.38267C76.1756 8.70508 76.643 9.01053 77.1105 9.31597L76.1929 10.4699C75.7601 10.1814 75.3619 9.89291 74.981 9.60444C74.6001 9.31597 74.2193 9.02749 73.8211 8.70508C73.5614 8.50146 73.3709 8.3148 73.2151 8.16208C73.0593 8.00936 72.9554 7.8736 72.8862 7.75482ZM72.6265 15.2551H80.7461V16.6296H71.0337V11.6407H72.6438V15.2551H72.6265ZM78.8417 12.5401V2.00233H80.4518V12.5401H78.8417Z" fill="black"/>
    <path d="M84.78 11.0638V6.43125H93.0554V4.51375H84.7107V3.1732H94.6655V7.7718H86.39V9.70626H95.0291V11.0468H90.5451V13.4564H96.6564V14.797H82.8063V13.4564H88.9177V11.0638H84.78Z" fill="black"/>
    <path d="M102.577 7.3815C102.525 7.51726 102.387 7.70392 102.179 7.95845C101.971 8.19602 101.729 8.43358 101.469 8.63721C101.123 8.94265 100.725 9.24809 100.292 9.58747C99.8593 9.92685 99.4091 10.2323 98.959 10.5547L98.0068 9.41778C98.5262 9.06143 99.0283 8.70509 99.4784 8.34874C99.9285 8.00936 100.309 7.68695 100.604 7.41544C100.794 7.22878 100.967 7.04212 101.106 6.85547C101.244 6.66881 101.365 6.48215 101.435 6.27852C101.521 6.07489 101.573 5.87126 101.608 5.6337C101.642 5.39613 101.66 5.1416 101.66 4.85312V4.22527H98.4916V2.88472H106.282V4.22527H103.304V4.78525C103.304 5.03978 103.322 5.27735 103.339 5.48098C103.356 5.68461 103.408 5.87126 103.46 6.04095C103.512 6.21064 103.599 6.38033 103.72 6.53305C103.824 6.68578 103.98 6.8385 104.17 7.00819C104.551 7.34757 104.949 7.68695 105.382 7.99239C105.815 8.3148 106.265 8.62024 106.75 8.92568L105.832 10.0796C105.399 9.7911 105.001 9.50263 104.638 9.23112C104.274 8.95962 103.893 8.65418 103.495 8.33177C103.235 8.12814 103.045 7.94148 102.889 7.78876C102.75 7.63604 102.647 7.50029 102.577 7.3815ZM100.379 11.4032H110.316V16.935H108.689V12.7437H100.379V11.4032ZM108.706 10.6056V6.90637H105.919V5.56582H108.706V2.00233H110.316V10.6226H108.706V10.6056Z" fill="black"/>
    <path d="M117.224 7.14394C117.172 7.27969 117.051 7.48332 116.826 7.72088C116.601 7.97542 116.376 8.19601 116.116 8.43358C115.77 8.73902 115.389 9.0784 114.939 9.45172C114.488 9.82504 114.056 10.1814 113.606 10.5208L112.636 9.40081C113.155 9.01053 113.657 8.60327 114.125 8.21298C114.592 7.8227 114.973 7.48332 115.268 7.19484C115.475 6.99122 115.648 6.80456 115.787 6.6179C115.925 6.43124 116.029 6.24458 116.116 6.04095C116.202 5.83733 116.254 5.6337 116.289 5.4131C116.324 5.1925 116.341 4.93797 116.341 4.66647V2.66412H117.986V4.58162C117.986 4.83615 117.986 5.05675 118.003 5.24341C118.02 5.44704 118.055 5.6337 118.107 5.80339C118.159 5.97308 118.245 6.14277 118.366 6.31246C118.488 6.48215 118.643 6.65184 118.834 6.82153C119.215 7.16091 119.63 7.51726 120.08 7.8736C120.531 8.22995 120.998 8.5863 121.5 8.92568L120.548 10.0287C120.115 9.72322 119.717 9.40081 119.336 9.09537C118.955 8.78993 118.557 8.46752 118.159 8.14511C117.899 7.94148 117.709 7.75482 117.553 7.58513C117.397 7.41544 117.293 7.26272 117.224 7.14394ZM115.943 13.7618C115.943 13.3716 116.047 13.0152 116.254 12.6758C116.462 12.3364 116.774 12.031 117.172 11.7765C117.57 11.5219 118.055 11.3183 118.626 11.1826C119.197 11.0298 119.838 10.962 120.565 10.962C121.292 10.962 121.933 11.0298 122.504 11.1826C123.076 11.3353 123.56 11.5219 123.958 11.7765C124.357 12.031 124.668 12.3364 124.876 12.6758C125.084 13.0152 125.188 13.3885 125.188 13.7618V14.4067C125.188 14.7969 125.084 15.1533 124.876 15.4927C124.668 15.8321 124.357 16.1375 123.958 16.392C123.56 16.6466 123.076 16.8502 122.504 16.9859C121.933 17.1217 121.292 17.2065 120.565 17.2065C119.838 17.2065 119.197 17.1387 118.626 16.9859C118.055 16.8332 117.57 16.6466 117.172 16.392C116.774 16.1375 116.462 15.8321 116.254 15.4927C116.047 15.1533 115.943 14.78 115.943 14.4067V13.7618ZM123.612 13.8467C123.612 13.66 123.543 13.4564 123.404 13.2697C123.266 13.0831 123.058 12.8964 122.799 12.7437C122.539 12.591 122.227 12.4722 121.846 12.3704C121.465 12.2855 121.05 12.2346 120.582 12.2346C120.115 12.2346 119.7 12.2855 119.319 12.3704C118.938 12.4552 118.626 12.591 118.366 12.7437C118.107 12.8964 117.899 13.0661 117.761 13.2697C117.622 13.4564 117.553 13.66 117.553 13.8467V14.2879C117.553 14.4745 117.622 14.6782 117.761 14.8648C117.899 15.0515 118.107 15.2381 118.366 15.3909C118.626 15.5436 118.938 15.6624 119.319 15.7642C119.7 15.849 120.115 15.8999 120.582 15.8999C121.05 15.8999 121.465 15.849 121.846 15.7642C122.227 15.6793 122.539 15.5436 122.799 15.3909C123.058 15.2381 123.266 15.0685 123.404 14.8648C123.543 14.6782 123.612 14.4745 123.612 14.2879V13.8467ZM123.543 10.7414V6.55002H120.513V5.20947H123.543V2.00233H125.153V10.7414H123.543Z" fill="black"/>
    <path d="M131.247 7.78876C131.212 7.92451 131.126 8.07723 130.97 8.24692C130.814 8.43358 130.676 8.5863 130.537 8.73902C130.312 8.99356 130.001 9.299 129.585 9.68929C129.17 10.0796 128.719 10.4699 128.269 10.8601L127.231 9.7911C127.75 9.34991 128.217 8.90871 128.65 8.51843C129.083 8.11117 129.412 7.78876 129.62 7.51726C129.793 7.29666 129.931 7.11 130.035 6.92334C130.139 6.73668 130.226 6.56699 130.278 6.38033C130.329 6.19367 130.381 6.00702 130.399 5.80339C130.416 5.59976 130.416 5.37916 130.416 5.12463V2.74897H131.992V5.02281C131.992 5.27735 132.009 5.49795 132.026 5.70157C132.043 5.9052 132.095 6.10883 132.147 6.29549C132.199 6.49912 132.303 6.68577 132.407 6.87243C132.528 7.05909 132.667 7.26272 132.857 7.48332C133.117 7.78876 133.428 8.0942 133.792 8.39964C134.156 8.70508 134.536 9.02749 134.917 9.33294L133.896 10.385C133.532 10.0796 133.186 9.77413 132.857 9.48566C132.546 9.19719 132.269 8.94265 132.061 8.73902C131.853 8.53539 131.68 8.34874 131.524 8.17905C131.403 8.04329 131.299 7.90754 131.247 7.78876ZM132.13 15.2551H140.682V16.6296H130.503V11.7425H132.13V15.2551ZM137.445 12.1498H135.904V6.70274H133.757V5.36219H135.904V2.20596H137.445V12.1498ZM138.778 2.00233H140.336V12.5061H138.778V2.00233Z" fill="black"/>
    <path d="M145.063 4.54768V7.3815H149.789V8.72205H145.063V11.7765H146.482C147.469 11.7765 148.404 11.7595 149.252 11.7086C150.101 11.6577 150.897 11.5728 151.659 11.4541L151.814 12.7946C151.364 12.8625 150.932 12.9134 150.499 12.9643C150.066 13.0152 149.616 13.0491 149.166 13.0661C148.716 13.0831 148.231 13.1001 147.729 13.117C147.227 13.134 146.69 13.134 146.084 13.134H143.452V3.20713H150.36V4.54768H145.063ZM153.39 16.7823V8.73902H150.655V7.36453H153.39V2.00233H155V16.7823H153.39Z" fill="black"/>
    <path d="M42.6756 23.3663L44.8224 26.1832H43.9395L42.1909 23.8754L41.6369 24.4523V26.1832H40.9444V21.2282H41.6369V23.6039L43.8529 21.2282H44.7012L42.6756 23.3663Z" fill="black"/>
    <path d="M47.1077 26.251C46.7961 26.251 46.5191 26.2001 46.2767 26.1153C46.0343 26.0304 45.8092 25.8947 45.6361 25.708C45.4457 25.5214 45.3072 25.3008 45.2033 25.0293C45.0994 24.7578 45.0475 24.4354 45.0475 24.079V23.3324C45.0475 22.976 45.0994 22.6536 45.2033 22.3821C45.3072 22.1106 45.4457 21.89 45.6361 21.7033C45.8266 21.5167 46.0343 21.3809 46.294 21.2961C46.5537 21.2112 46.8307 21.1603 47.125 21.1603C47.4193 21.1603 47.6963 21.2112 47.956 21.2961C48.2157 21.3809 48.4234 21.5337 48.6139 21.7033C48.8043 21.873 48.9428 22.1106 49.0467 22.3821C49.1506 22.6536 49.2025 22.976 49.2025 23.3324V24.079C49.2025 24.4523 49.1506 24.7578 49.0467 25.0293C48.9428 25.3008 48.8043 25.5214 48.6139 25.708C48.4234 25.8947 48.2157 26.0304 47.956 26.1153C47.679 26.2001 47.402 26.251 47.1077 26.251ZM47.1077 21.7543C46.9172 21.7543 46.7268 21.7882 46.571 21.8391C46.4152 21.89 46.2594 21.9918 46.1382 22.1276C46.017 22.2633 45.9304 22.433 45.8612 22.6366C45.7919 22.8403 45.7573 23.0948 45.7573 23.3833V23.9772C45.7573 24.2657 45.7919 24.5202 45.8612 24.7238C45.9304 24.9275 46.017 25.0971 46.1382 25.2329C46.2594 25.3686 46.3979 25.4535 46.571 25.5214C46.7441 25.5892 46.9172 25.6062 47.1077 25.6062C47.2981 25.6062 47.4886 25.5723 47.6444 25.5214C47.8175 25.4535 47.956 25.3686 48.0772 25.2329C48.1984 25.0971 48.2849 24.9275 48.3542 24.7238C48.4234 24.5202 48.4581 24.2657 48.4581 23.9772V23.3833C48.4581 23.0948 48.4234 22.8403 48.3542 22.6366C48.2849 22.433 48.1984 22.2633 48.0772 22.1276C47.956 21.9918 47.8175 21.907 47.6444 21.8391C47.4886 21.7882 47.2981 21.7543 47.1077 21.7543Z" fill="black"/>
    <path d="M50.8472 26.1832H50.1547V21.2282H51.9898C52.2495 21.2282 52.4746 21.2621 52.6823 21.33C52.8901 21.3979 53.0459 21.4997 53.1844 21.6185C53.3229 21.7373 53.4268 21.873 53.496 22.0427C53.5653 22.2124 53.5999 22.3821 53.5999 22.5857V22.7724C53.5999 23.0439 53.5306 23.2984 53.3748 23.519C53.219 23.7396 53.0113 23.8923 52.7516 23.9942L53.7557 26.1832H53.0113L52.0937 24.1129H51.9898H50.8645V26.1832H50.8472ZM50.8472 23.536H51.8167C52.2149 23.536 52.4919 23.4681 52.665 23.3154C52.8381 23.1627 52.9074 22.976 52.9074 22.7385V22.6027C52.9074 22.3651 52.8208 22.1615 52.665 22.0258C52.5092 21.89 52.2495 21.8052 51.886 21.8052H50.8472V23.536Z" fill="black"/>
    <path d="M57.8242 21.2282V21.8052H55.3658V23.3493H57.6684V23.9263H55.3658V25.5892H57.8761V26.1662H54.6906V21.2112H57.8242V21.2282Z" fill="black"/>
    <path d="M62.8795 26.1832H62.1524L61.6157 24.7238H59.6767L59.14 26.1832H58.4301L60.3172 21.2282H60.9924L62.8795 26.1832ZM59.8844 24.1469H61.3906L60.9751 22.976C60.9405 22.8742 60.9059 22.7894 60.8712 22.7045C60.8366 22.6366 60.8193 22.5518 60.802 22.4839C60.7847 22.416 60.75 22.3312 60.7327 22.2633C60.7154 22.1785 60.6808 22.0936 60.6462 21.9748C60.6115 22.0936 60.5769 22.1954 60.5596 22.2633C60.5423 22.3482 60.5077 22.416 60.4903 22.4839C60.473 22.5518 60.4384 22.6197 60.4211 22.7045C60.4038 22.7894 60.3692 22.8742 60.3345 22.976L59.8844 24.1469Z" fill="black"/>
    <path d="M69.0082 25.6232C68.7485 25.8607 68.4715 26.0304 68.1772 26.1153C67.8828 26.2001 67.5539 26.251 67.225 26.251C66.9133 26.251 66.6536 26.2001 66.394 26.1153C66.1516 26.0304 65.9265 25.8947 65.7534 25.708C65.5803 25.5214 65.4418 25.3008 65.3379 25.0293C65.234 24.7578 65.1821 24.4354 65.1821 24.079V23.3324C65.1821 22.976 65.234 22.6536 65.3379 22.3821C65.4418 22.1106 65.5803 21.89 65.7534 21.7033C65.9265 21.5167 66.1516 21.3809 66.394 21.2961C66.6363 21.2112 66.9133 21.1603 67.2077 21.1603C67.5539 21.1603 67.8655 21.1943 68.1252 21.2791C68.3849 21.364 68.6446 21.4997 68.8697 21.6864L68.5061 22.2464C68.281 22.0597 68.056 21.9409 67.8482 21.89C67.6405 21.8221 67.4154 21.8052 67.1903 21.8052C66.9999 21.8052 66.8268 21.8391 66.6536 21.907C66.4978 21.9749 66.3593 22.0767 66.2381 22.1954C66.117 22.3312 66.0304 22.5009 65.9611 22.7045C65.8919 22.9081 65.8573 23.1627 65.8573 23.4342V24.0111C65.8573 24.2996 65.8919 24.5372 65.9611 24.7408C66.0304 24.9444 66.117 25.1141 66.2381 25.2499C66.3593 25.3856 66.4978 25.4874 66.6536 25.5383C66.8095 25.6062 66.9999 25.6402 67.1903 25.6402C67.4327 25.6402 67.6751 25.6062 67.9175 25.5383C68.1598 25.4705 68.3849 25.3347 68.5927 25.1311L69.0082 25.6232Z" fill="black"/>
    <path d="M73.873 26.1832H73.1459L72.6092 24.7238H70.6702L70.1335 26.1832H69.4237L71.3107 21.2282H71.9859L73.873 26.1832ZM70.8779 24.1469H72.3841L71.9686 22.976C71.934 22.8742 71.8994 22.7894 71.8647 22.7045C71.8301 22.6366 71.8128 22.5518 71.7955 22.4839C71.7782 22.416 71.7436 22.3312 71.7262 22.2633C71.7089 22.1785 71.6743 22.0936 71.6397 21.9748C71.605 22.0936 71.5704 22.1954 71.5531 22.2633C71.5358 22.3482 71.5012 22.416 71.4839 22.4839C71.4665 22.5518 71.4319 22.6197 71.4146 22.7045C71.3973 22.7894 71.3627 22.8742 71.328 22.976L70.8779 24.1469Z" fill="black"/>
    <path d="M75.2753 26.1832H74.5828V21.2282H76.418C76.6777 21.2282 76.9027 21.2621 77.1105 21.33C77.3182 21.3979 77.474 21.4997 77.6125 21.6185C77.751 21.7373 77.8549 21.873 77.9242 22.0427C77.9934 22.2124 78.028 22.3821 78.028 22.5857V22.7724C78.028 23.0439 77.9588 23.2984 77.803 23.519C77.6472 23.7396 77.4394 23.8923 77.1797 23.9942L78.1839 26.1832H77.4394L76.5218 24.1129H76.418H75.2926V26.1832H75.2753ZM75.2753 23.536H76.2448C76.643 23.536 76.92 23.4681 77.0932 23.3154C77.2663 23.1627 77.3355 22.976 77.3355 22.7385V22.6027C77.3355 22.3651 77.249 22.1615 77.0932 22.0258C76.9373 21.89 76.6777 21.8052 76.3141 21.8052H75.2753V23.536Z" fill="black"/>
    <path d="M82.2523 21.2282V21.8052H79.7939V23.3493H82.0965V23.9263H79.7939V25.5892H82.3043V26.1662H79.1187V21.2112H82.2523V21.2282Z" fill="black"/>
    <path d="M86.442 21.2282V21.8052H83.9836V23.3493H86.2862V23.9263H83.9836V25.5892H86.4939V26.1662H83.3084V21.2112H86.442V21.2282Z" fill="black"/>
    <path d="M88.1732 26.1832H87.4807V21.2282H89.3159C89.5756 21.2282 89.8006 21.2621 90.0084 21.33C90.2161 21.3979 90.3719 21.4997 90.5104 21.6185C90.6489 21.7373 90.7528 21.873 90.8221 22.0427C90.8913 22.2124 90.9259 22.3821 90.9259 22.5857V22.7724C90.9259 23.0439 90.8567 23.2984 90.7009 23.519C90.5451 23.7396 90.3373 23.8923 90.0776 23.9942L91.0818 26.1832H90.3373L89.4198 24.1129H89.3159H88.1906V26.1832H88.1732ZM88.1732 23.536H89.1428C89.5409 23.536 89.8179 23.4681 89.9911 23.3154C90.1642 23.1627 90.2334 22.976 90.2334 22.7385V22.6027C90.2334 22.3651 90.1469 22.1615 89.9911 22.0258C89.8353 21.89 89.5756 21.8052 89.212 21.8052H88.1732V23.536Z" fill="black"/>
    <path d="M97.7644 26.1832H97.0373L96.5006 24.7238H94.5616L94.0249 26.1832H93.3151L95.2022 21.2282H95.8774L97.7644 26.1832ZM94.7867 24.1469H96.2929L95.8774 22.976C95.8427 22.8742 95.8081 22.7894 95.7735 22.7045C95.7389 22.6366 95.7215 22.5518 95.7042 22.4839C95.6869 22.416 95.6523 22.3312 95.635 22.2633C95.6177 22.1785 95.5831 22.0936 95.5484 21.9748C95.5138 22.0936 95.4792 22.1954 95.4619 22.2633C95.4446 22.3482 95.4099 22.416 95.3926 22.4839C95.3753 22.5518 95.3407 22.6197 95.3234 22.7045C95.306 22.7894 95.2714 22.8742 95.2368 22.976L94.7867 24.1469Z" fill="black"/>
    <path d="M98.4916 21.2282H100.309C100.586 21.2282 100.846 21.2621 101.054 21.33C101.262 21.3979 101.435 21.4997 101.573 21.6185C101.712 21.7373 101.816 21.89 101.885 22.0767C101.954 22.2464 101.989 22.433 101.989 22.6366V22.7894C101.989 22.993 101.954 23.1796 101.885 23.3493C101.816 23.519 101.712 23.6887 101.573 23.8075C101.435 23.9433 101.262 24.0451 101.054 24.1299C100.846 24.2148 100.604 24.2487 100.327 24.2487H99.2014V26.1832H98.5089V21.2282H98.4916ZM99.1668 21.8052V23.6548H100.171C100.898 23.6548 101.262 23.3663 101.262 22.7724V22.6536C101.262 22.3651 101.175 22.1615 101.002 22.0258C100.829 21.89 100.569 21.8221 100.24 21.8221H99.1668V21.8052Z" fill="black"/>
    <path d="M103.893 26.1832V21.8052H102.352V21.2282H106.126V21.8052H104.586V26.1832H103.893Z" fill="black"/>
    <path d="M107.494 21.2282V26.1832H106.802V21.2282H107.494Z" fill="black"/>
    <path d="M109.745 26.1832V21.8052H108.204V21.2282H111.978V21.8052H110.437V26.1832H109.745Z" fill="black"/>
    <path d="M116.358 21.2282V24.1978C116.358 24.5711 116.324 24.8935 116.237 25.148C116.15 25.4026 116.029 25.6232 115.873 25.7929C115.718 25.9626 115.527 26.0813 115.285 26.1492C115.06 26.2171 114.783 26.251 114.488 26.251C114.194 26.251 113.917 26.2171 113.692 26.1492C113.467 26.0813 113.259 25.9626 113.103 25.7929C112.948 25.6232 112.826 25.4196 112.74 25.148C112.653 24.8935 112.619 24.5711 112.619 24.1978V21.2282H113.311V24.1129C113.311 24.3844 113.329 24.622 113.38 24.8256C113.432 25.0123 113.502 25.182 113.606 25.3008C113.709 25.4196 113.831 25.5044 113.986 25.5723C114.142 25.6232 114.315 25.6571 114.506 25.6571C114.714 25.6571 114.887 25.6232 115.025 25.5723C115.181 25.5214 115.302 25.4365 115.406 25.3008C115.51 25.182 115.579 25.0293 115.631 24.8256C115.683 24.639 115.7 24.4014 115.7 24.1129V21.2282H116.358Z" fill="black"/>
    <path d="M119.128 21.2282C119.821 21.2282 120.357 21.4149 120.721 21.7712C121.085 22.1276 121.258 22.6536 121.258 23.3493V24.062C121.258 24.7578 121.085 25.2668 120.738 25.6402C120.392 25.9965 119.855 26.1832 119.146 26.1832H117.466V21.2282H119.128ZM118.141 25.5723H119.059C119.284 25.5723 119.492 25.5383 119.665 25.4874C119.855 25.4365 120.011 25.3347 120.132 25.2159C120.254 25.0971 120.357 24.9275 120.427 24.7408C120.496 24.5372 120.531 24.2996 120.531 24.0281V23.3833C120.531 23.1118 120.496 22.8572 120.427 22.6706C120.357 22.4669 120.254 22.3142 120.132 22.1785C120.011 22.0597 119.855 21.9579 119.665 21.907C119.474 21.8561 119.284 21.8221 119.059 21.8221H118.141V25.5723Z" fill="black"/>
    <path d="M125.43 21.2282V21.8052H122.972V23.3493H125.274V23.9263H122.972V25.5892H125.482V26.1662H122.296V21.2112H125.43V21.2282Z" fill="black"/>
    <path d="M131.888 25.6232C131.628 25.8607 131.351 26.0304 131.057 26.1153C130.762 26.2001 130.433 26.251 130.104 26.251C129.793 26.251 129.533 26.2001 129.273 26.1153C129.031 26.0304 128.806 25.8947 128.633 25.708C128.46 25.5214 128.321 25.3008 128.217 25.0293C128.113 24.7578 128.062 24.4354 128.062 24.079V23.3324C128.062 22.976 128.113 22.6536 128.217 22.3821C128.321 22.1106 128.46 21.89 128.633 21.7033C128.806 21.5167 129.031 21.3809 129.273 21.2961C129.516 21.2112 129.793 21.1603 130.087 21.1603C130.433 21.1603 130.745 21.1943 131.005 21.2791C131.264 21.364 131.524 21.4997 131.749 21.6864L131.386 22.2464C131.161 22.0597 130.935 21.9409 130.728 21.89C130.52 21.8221 130.295 21.8052 130.07 21.8052C129.879 21.8052 129.706 21.8391 129.533 21.907C129.377 21.9749 129.239 22.0767 129.118 22.1954C128.996 22.3312 128.91 22.5009 128.841 22.7045C128.771 22.9081 128.737 23.1627 128.737 23.4342V24.0111C128.737 24.2996 128.771 24.5372 128.841 24.7408C128.91 24.9444 128.996 25.1141 129.118 25.2499C129.239 25.3856 129.377 25.4874 129.533 25.5383C129.689 25.6062 129.879 25.6402 130.07 25.6402C130.312 25.6402 130.555 25.6062 130.797 25.5383C131.039 25.4705 131.264 25.3347 131.472 25.1311L131.888 25.6232Z" fill="black"/>
    <path d="M135.887 21.2282V21.8052H133.428V23.3493H135.731V23.9263H133.428V25.5892H135.939V26.1662H132.753V21.2112H135.887V21.2282Z" fill="black"/>
    <path d="M137.739 21.2282L139.696 24.5711C139.748 24.6559 139.8 24.7578 139.869 24.8765C139.938 24.9953 139.99 25.1311 140.059 25.2838V21.2282H140.7V26.1832H139.903L137.947 22.8572C137.895 22.7724 137.843 22.6536 137.774 22.5348C137.705 22.416 137.653 22.2803 137.583 22.1276V26.1832H136.943V21.2282H137.739Z" fill="black"/>
    <path d="M142.933 26.1832V21.8052H141.392V21.2282H145.166V21.8052H143.626V26.1832H142.933Z" fill="black"/>
    <path d="M148.993 21.2282V21.8052H146.534V23.3493H148.837V23.9263H146.534V25.5892H149.044V26.1662H145.859V21.2112H148.993V21.2282Z" fill="black"/>
    <path d="M150.741 26.1832H150.049V21.2282H151.866C152.126 21.2282 152.351 21.2621 152.559 21.33C152.767 21.3979 152.922 21.4997 153.061 21.6185C153.199 21.7373 153.303 21.873 153.373 22.0427C153.442 22.2124 153.477 22.3821 153.477 22.5857V22.7724C153.477 23.0439 153.407 23.2984 153.251 23.519C153.096 23.7396 152.888 23.8923 152.628 23.9942L153.632 26.1832H152.888L151.97 24.1129H151.866H150.741V26.1832ZM150.741 23.536H151.711C152.109 23.536 152.386 23.4681 152.559 23.3154C152.732 23.1627 152.801 22.976 152.801 22.7385V22.6027C152.801 22.3651 152.715 22.1615 152.559 22.0258C152.403 21.89 152.143 21.8052 151.78 21.8052H150.741V23.536Z" fill="black"/>
    <path d="M12.4305 0.101822H6.21524V6.09187V12.1837V18.2586V24.3505H12.4305H18.6284V18.2586V12.1837V6.09187V0.101822H12.4305Z" fill="#E5E5E5"/>
    <path d="M30.955 6.09186H24.8436V12.1837V18.2586V22.8403V24.3505V24.3844V28.8982H30.955H31.0589V24.3844V24.3505V22.8403V18.2586V12.1837V6.09186H30.955Z" fill="#E5E5E5"/>
    <path d="M6.21524 22.8403V18.2586V12.1837V6.09187V0.101814V0H0V0.101814V6.09187V12.1837V18.2586V22.8403V24.3505V24.3844V28.8982V29H6.21524H12.4305H18.6284V28.8982V24.3844V24.3505V22.8403H6.21524Z" fill="#418B89"/>
    <path d="M24.8436 0H18.6284V0.101814V6.09187V12.1837V18.2586V22.8403V24.3505V24.3844V28.8982V29H24.8436V28.8982V24.3844V24.3505V22.8403V18.2586V12.1837V6.09187H30.955H31.0589V0H24.8436Z" fill="#0D4F8A"/>
</svg>
