<svg width="78" height="36" viewBox="0 0 78 36" fill="none" xmlns="http://www.w3.org/2000/svg">
    <path d="M24.6667 17.1667H14.525L19.1833 12.5083L18 11.3333L11.3333 18L18 24.6667L19.175 23.4917L14.525 18.8333H24.6667V17.1667Z" fill="#202528" fill-opacity="0.35"/>
    <path d="M44.1851 16.622H39.3831V14.284H44.0311V13.122H37.9411V17.784H44.1851V16.622ZM45.0531 18.932C42.3231 19.254 39.2571 19.254 36.7791 19.254L36.9751 20.444C37.9971 20.444 39.1171 20.444 40.2651 20.402V24.686H41.7211V20.346C42.8411 20.276 44.0031 20.164 45.1371 19.996L45.0531 18.932ZM45.8511 12.436V25.092H47.2931V12.436H45.8511ZM56.14 22.404V20.248H60.088V19.086H52.514V17.322H59.808V13.318H51.072V14.48H58.38V16.174H51.1V20.248H54.698V22.404H49.714V23.594H61.166V22.404H56.14Z" fill="#202528" fill-opacity="0.4"/>
</svg>
