<svg width="20" height="20" viewBox="0 0 20 20" fill="none" xmlns="http://www.w3.org/2000/svg">
    <path d="M16.4 10.3294C16.4 9.92942 16.0941 9.62354 15.6941 9.62354C15.2941 9.62354 14.9882 9.92942 14.9882 10.3294C14.9882 13.0824 12.7529 15.3177 10 15.3177C7.24706 15.3177 5.01177 13.0824 5.01177 10.3294C5.01177 9.92942 4.70589 9.62354 4.30589 9.62354C3.90589 9.62354 3.60001 9.92942 3.60001 10.3294C3.60001 13.6 6.04706 16.353 9.29412 16.7059V18.5882H6.72942C6.32942 18.5882 6.02354 18.8941 6.02354 19.2941C6.02354 19.6941 6.32942 20 6.72942 20H13.2706C13.6706 20 13.9765 19.6941 13.9765 19.2941C13.9765 18.8941 13.6706 18.5882 13.2706 18.5882H10.7059V16.7059C13.9529 16.353 16.4 13.6 16.4 10.3294Z" fill="black"/>
    <path d="M10 0C7.83529 0 6.07059 1.76471 6.07059 3.92941V10.3059C6.07059 12.4941 7.83529 14.2353 10 14.2588C12.1647 14.2588 13.9294 12.4941 13.9294 10.3294V3.92941C13.9294 1.76471 12.1647 0 10 0Z" fill="black"/>
</svg>
